General
Unique ID : 187345023473354354492785905678259637115 (0x8CF156CCE4BA9A769D3018478310CB7B)
Complete name : /Volumes/data/video/movies/Action/Heroes/Batman/Batman/Batman.1989.MULTi.1080p.x264.mkv
Format : Matroska
Format version : Version 4
File size : 3.40 GiB
Duration : 2 h 6 min
Overall bit rate : 3 848 kb/s
Frame rate : 23.976 FPS
Movie name : Batman (1989) PopHD
Encoded date : 2017-11-08 19:00:53 UTC
Writing application : mkvmerge v8.2.0 ('World of Adventure') 64bit
Writing library : libebml v1.3.1 + libmatroska v1.4.2
Cover : Yes
Attachments : batman-cover.jpg

Video
ID : 1
Format : AVC
Format/Info : Advanced Video Codec
Format profile : High@L4.1
Format settings : CABAC / 4 Ref Frames
Format settings, CABAC : Yes
Format settings, Reference frames : 4 frames
Codec ID : V_MPEG4/ISO/AVC
Duration : 2 h 6 min
Bit rate : 2 950 kb/s
Width : 1 920 pixels
Height : 1 080 pixels
Display aspect ratio : 16:9
Frame rate mode : Constant
Frame rate : 23.976 (24000/1001) FPS
Color space : YUV
Chroma subsampling : 4:2:0
Bit depth : 8 bits
Scan type : Progressive
Bits/(Pixel\*Frame) : 0.059
Stream size : 2.60 GiB (77%)
Title : Batman (1989) PopHD
Writing library : x264 core 148 r2643 5c65704
Encoding settings : cabac=1 / ref=4 / deblock=1:0:0 / analyse=0x3:0x133 / me=umh / subme=11 / psy=1 / psy_rd=1.00:0.00 / mixed_ref=1 / me_range=24 / chroma_me=1 / trellis=2 / 8x8dct=1 / cqm=0 / deadzone=21,11 / fast_pskip=1 / chroma_qp_offset=-2 / threads=12 / lookahead_threads=2 / sliced_threads=0 / nr=0 / decimate=1 / interlaced=0 / bluray_compat=0 / constrained_intra=0 / bframes=8 / b_pyramid=2 / b_adapt=2 / b_bias=0 / direct=3 / weightb=1 / open_gop=0 / weightp=2 / keyint=240 / keyint_min=24 / scenecut=40 / intra_refresh=0 / rc_lookahead=60 / rc=2pass / mbtree=1 / bitrate=2950 / ratetol=1.0 / qcomp=0.60 / qpmin=0 / qpmax=69 / qpstep=4 / cplxblur=20.0 / qblur=0.5 / vbv_maxrate=50000 / vbv_bufsize=62500 / nal_hrd=none / filler=0 / ip_ratio=1.40 / aq=1:1.00
Default : Yes
Forced : No
Color range : Limited
Color primaries : BT.709
Transfer characteristics : BT.709
Matrix coefficients : BT.709

Audio #1
ID : 2
Format : AC-3
Format/Info : Audio Coding 3
Commercial name : Dolby Digital
Codec ID : A_AC3
Duration : 2 h 6 min
Bit rate mode : Constant
Bit rate : 256 kb/s
Channel(s) : 2 channels
Channel layout : L R
Sampling rate : 48.0 kHz
Frame rate : 31.250 FPS (1536 SPF)
Compression mode : Lossy
Stream size : 231 MiB (7%)
Title : AC3-2.0-VFQ
Language : French
Service kind : Complete Main
Default : No
Forced : No

Audio #2
ID : 3
Format : AC-3
Format/Info : Audio Coding 3
Commercial name : Dolby Digital
Codec ID : A_AC3
Duration : 2 h 6 min
Bit rate mode : Constant
Bit rate : 448 kb/s
Channel(s) : 6 channels
Channel layout : L R C LFE Ls Rs
Sampling rate : 48.0 kHz
Frame rate : 31.250 FPS (1536 SPF)
Compression mode : Lossy
Stream size : 405 MiB (12%)
Title : AC3-5.1-VO
Language : English
Service kind : Complete Main
Default : Yes
Forced : No

Audio #3
ID : 4
Format : AC-3
Format/Info : Audio Coding 3
Commercial name : Dolby Digital
Format settings : Dolby Surround
Codec ID : A_AC3
Duration : 2 h 6 min
Bit rate mode : Constant
Bit rate : 192 kb/s
Channel(s) : 2 channels
Channel layout : L R
Sampling rate : 48.0 kHz
Frame rate : 31.250 FPS (1536 SPF)
Compression mode : Lossy
Stream size : 173 MiB (5%)
Title : AC3-2.0-VFF
Language : French
Service kind : Complete Main
Default : No
Forced : No

Text #1
ID : 5
Format : UTF-8
Codec ID : S_TEXT/UTF8
Codec ID/Info : UTF-8 Plain Text
Duration : 1 h 50 min
Bit rate : 0 b/s
Frame rate : 0.002 FPS
Count of elements : 14
Stream size : 386 Bytes (0%)
Title : forced
Language : French
Default : No
Forced : No

Text #2
ID : 6
Format : UTF-8
Codec ID : S_TEXT/UTF8
Codec ID/Info : UTF-8 Plain Text
Duration : 1 h 50 min
Bit rate : 1 b/s
Frame rate : 0.002 FPS
Count of elements : 14
Stream size : 1 002 Bytes (0%)
Title : forced colored
Language : French
Default : Yes
Forced : Yes

Text #3
ID : 7
Format : UTF-8
Codec ID : S_TEXT/UTF8
Codec ID/Info : UTF-8 Plain Text
Duration : 2 h 3 min
Bit rate : 35 b/s
Frame rate : 0.139 FPS
Count of elements : 1031
Stream size : 32.3 KiB (0%)
Title : full
Language : French
Default : No
Forced : No

Text #4
ID : 8
Format : UTF-8
Codec ID : S_TEXT/UTF8
Codec ID/Info : UTF-8 Plain Text
Duration : 1 h 58 min
Bit rate : 38 b/s
Frame rate : 0.142 FPS
Count of elements : 1011
Stream size : 33.5 KiB (0%)
Title : full
Language : English
Default : No
Forced : No

Text #5
ID : 9
Format : UTF-8
Codec ID : S_TEXT/UTF8
Codec ID/Info : UTF-8 Plain Text
Duration : 2 h 3 min
Bit rate : 39 b/s
Frame rate : 0.149 FPS
Count of elements : 1105
Stream size : 35.6 KiB (0%)
Title : SDH
Language : English
Default : No
Forced : No

Menu
00:00:00.000 : Credits
00:02:32.944 : "I'm Batman"
00:07:03.882 : Looking Fine
00:09:26.858 : Better Be Sure
00:12:22.325 : Knox Meets Vale
00:14:42.131 : Grissom's #1 Guy
00:17:03.981 : Party at Wayne Manor
00:20:05.454 : Their Odd Host
00:23:58.062 : Axis Chemical Ambush
00:27:05.999 : Napier's Plunge
00:30:25.615 : Dinner for Two
00:34:12.509 : Drastic Surgery
00:36:13.797 : Call Me Joker
00:38:24.552 : "Get a Load of Me"
00:41:06.297 : Glad You're Dead
00:45:06.746 : Two Roses
00:48:07.051 : Vengeance - And No Press
00:50:51.715 : So Much to Do
00:54:19.131 : Put On a Happy Face
00:57:54.346 : Cosmetics Scare
00:59:34.321 : Museum Date
01:06:38.036 : Wonderful Toys
01:12:24.173 : Not Exactly Normal
01:16:29.210 : A Name to My Pain
01:18:19.111 : Not Quite Telling Her
01:21:10.699 : Dancing With the Devil
01:25:30.083 : Don't Get Personal
01:27:24.990 : Gauntlet Thrown
01:29:32.951 : Sad Memory; Getting In
01:33:58.049 : Chemical Inferno
01:35:50.370 : Gotham's Greed
01:38:15.807 : The Batwing
01:42:43.866 : Come to Me
01:46:34.263 : Bell Tower Ascent
01:50:10.979 : Bat in My Belfry
01:53:20.210 : Downfalls
01:59:43.218 : Signals
02:02:30.260 : End Credits
